<svg xmlns="http://www.w3.org/2000/svg" xmlns:xlink="http://www.w3.org/1999/xlink" width="20" height="30" viewBox="0 0 20 30">
  <defs>
    <clipPath id="clip-path">
      <rect id="Rectangle_2" data-name="Rectangle 2" width="20" height="30" transform="translate(109.28 31.03)"/>
    </clipPath>
  </defs>
  <g id="marker-balloon" transform="translate(-109.28 -31.03)">
    <g id="Group_3" data-name="Group 3" clip-path="url(#clip-path)">
      <path id="Path_3" data-name="Path 3" d="M119.28,31.03a9.989,9.989,0,0,0-8.8,14.74l8.25,14.93a.589.589,0,0,0,.23.24.614.614,0,0,0,.64,0,.589.589,0,0,0,.23-.24l8.25-14.93a9.99,9.99,0,0,0-8.8-14.74Zm0,18.14a8.143,8.143,0,0,1-7.52-5.02,8.145,8.145,0,0,1,1.77-8.87,8.132,8.132,0,1,1,5.75,13.89Z" fill="#d21209"/>
      <path id="Path_4" data-name="Path 4" d="M119.27,36.03a4.015,4.015,0,0,0-2.81,1.16,3.912,3.912,0,0,0-1.18,2.76v.16a3.431,3.431,0,0,0,.59,1.65,27.842,27.842,0,0,1,1.68,2.35h.42v.94h-.55v.78a1.2,1.2,0,0,0,.36.85,1.21,1.21,0,0,0,.86.35h1.22a1.267,1.267,0,0,0,.47-.09,1.2,1.2,0,0,0,.4-.26,1.268,1.268,0,0,0,.26-.39,1.216,1.216,0,0,0,.09-.46v-.78h-.48v-.97h.42a22.812,22.812,0,0,1,1.68-2.35,3.059,3.059,0,0,0,.59-1.65v-.12a3.917,3.917,0,0,0-1.18-2.77,4.035,4.035,0,0,0-2.84-1.16Zm.84,8.04v.94h-1.63v-.94Zm-3.19-4.12a.5.5,0,0,1-.12-.02.351.351,0,0,1-.17-.17.254.254,0,0,1-.02-.12,2.345,2.345,0,0,1,.68-1.66,2.37,2.37,0,0,1,1.67-.7.334.334,0,0,1,.23.09.314.314,0,0,1,0,.44.317.317,0,0,1-.23.09,1.672,1.672,0,0,0-1.18.48,1.653,1.653,0,0,0-.49,1.16.3.3,0,0,1-.02.16.3.3,0,0,1-.09.13.248.248,0,0,1-.14.08.44.44,0,0,1-.16.02Z" fill="#d21209"/>
    </g>
  </g>
</svg>
