<svg xmlns="http://www.w3.org/2000/svg" xmlns:xlink="http://www.w3.org/1999/xlink" width="20" height="30" viewBox="0 0 20 30">
  <defs>
    <clipPath id="clip-path">
      <rect id="Rectangle_1" data-name="Rectangle 1" width="20" height="30" transform="translate(74.8 31.03)"/>
    </clipPath>
  </defs>
  <g id="marker-plane" transform="translate(-74.8 -31.03)">
    <g id="Group_1" data-name="Group 1" clip-path="url(#clip-path)">
      <path id="Path_1" data-name="Path 1" d="M85.07,41.67c-.92.68-1.85,1.36-2.7,2.1.1.16.2.26.31.42.3.37.57.74.92,1.11.1.1.1.16,0,.26a1.239,1.239,0,0,1-.58.48.2.2,0,0,1-.08-.01.179.179,0,0,1-.07-.05c-.27-.21-.53-.42-.84-.63a3.388,3.388,0,0,1-.83-.68,4.579,4.579,0,0,1-.67-.84c-.21-.32-.47-.63-.68-.93-.05,0-.05-.05-.05-.1a2.234,2.234,0,0,1,.53-.69l.03-.03a.085.085,0,0,1,.08,0c.01.01.03.02.03.03l.78.62.62.48a.647.647,0,0,0,.09.08.238.238,0,0,0,.12.03,1.831,1.831,0,0,0,.26-.36c.57-.79,1.14-1.53,1.72-2.31l.03-.03a.075.075,0,0,0,.01-.05.09.09,0,0,0-.01-.05c-.01-.01-.02-.03-.03-.03a29.525,29.525,0,0,1-1.97-2.63,18.4,18.4,0,0,1-1.2-1.69V36.1c.16-.27.26-.48.42-.74a.447.447,0,0,1,.16-.2.284.284,0,0,1,.1-.09.308.308,0,0,1,.13-.03.277.277,0,0,1,.13.03.219.219,0,0,1,.1.09c.42.32.78.63,1.14.93.67.63,1.35,1.21,1.98,1.79a2.287,2.287,0,0,0,.92.58c.05,0,.16,0,.2-.06a.239.239,0,0,1,.16-.1,5.008,5.008,0,0,1,1.04-.79c.06,0,.1,0,.16-.1a.249.249,0,0,1,.17-.03.237.237,0,0,1,.15.09h.05a.928.928,0,0,0,.37-.16.139.139,0,0,0,.1-.05c.1,0,.16.05.1.1a2.056,2.056,0,0,0-.15.36c-.05.1-.06.06-.06.11v.05a.275.275,0,0,1,.08.15.249.249,0,0,1-.03.17,4.537,4.537,0,0,1-.78,1.11l-.21.2a.138.138,0,0,0-.03.04.076.076,0,0,0-.01.04c0,.02,0,.03.01.04s.02.03.03.04a2.722,2.722,0,0,0,.65,1.08c.57.68,1.2,1.37,1.77,1.99.31.32.57.69.92,1.01a.41.41,0,0,1,0,.58,1.607,1.607,0,0,1-.53.36,2.743,2.743,0,0,1-.42.21h-.1c-.83-.63-1.72-1.27-2.55-1.86-.68-.42-1.31-.93-1.98-1.36h-.01Z" fill="#d21209"/>
      <path id="Path_2" data-name="Path 2" d="M84.8,31.03A9.989,9.989,0,0,0,76,45.77L84.25,60.7a.589.589,0,0,0,.23.24.614.614,0,0,0,.64,0,.589.589,0,0,0,.23-.24L93.6,45.77a9.99,9.99,0,0,0-8.8-14.74Zm0,18.14a8.143,8.143,0,0,1-7.52-5.02,8.145,8.145,0,0,1,1.77-8.87A8.132,8.132,0,1,1,84.8,49.17Z" fill="#d21209"/>
    </g>
  </g>
</svg>
