<svg xmlns="http://www.w3.org/2000/svg" xmlns:xlink="http://www.w3.org/1999/xlink" width="20" height="30" viewBox="0 0 20 30">
  <defs>
    <clipPath id="clip-path">
      <rect id="Rectangle_3" data-name="Rectangle 3" width="20" height="30" transform="translate(43.46 31.03)"/>
    </clipPath>
  </defs>
  <g id="marker-helicopter" transform="translate(-43.46 -31.03)">
    <g id="Group_5" data-name="Group 5" clip-path="url(#clip-path)">
      <path id="Path_5" data-name="Path 5" d="M59.23,38.34a1.32,1.32,0,0,0-.72.24,1.216,1.216,0,0,0-.45.6l-5.79.06h-.06v-.91h-.19v-.36l3.63.24a.422.422,0,0,0,.19-.03.42.42,0,0,0,.26-.26.4.4,0,0,0,.02-.19.566.566,0,0,0-.03-.18.46.46,0,0,0-.25-.25.584.584,0,0,0-.18-.04l-3.39.3h-.24v-.54h-.49v.6l-3.64-.31c-.24-.05-.43.18-.43.43a.372.372,0,0,0,.02.18.507.507,0,0,0,.09.16.418.418,0,0,0,.15.11.392.392,0,0,0,.18.04l3.39-.24h.25v.36H51.4v.91a4.261,4.261,0,0,0-1.23.24,2.717,2.717,0,0,0-1.16.93,2.787,2.787,0,0,0-.5,1.39,2.254,2.254,0,0,0,.68,1.62,1.926,1.926,0,0,0,1.17.66l-.19,1.34h-.61a1.262,1.262,0,0,1-.57-.17,1.131,1.131,0,0,1-.41-.43l-.5.3a1.692,1.692,0,0,0,1.48.9h5.56v-.61H53.87l-.24-1.62.12-.12a5.091,5.091,0,0,0,1.35-1.81l.37-.72,2.59-.72a1.121,1.121,0,0,0,.46.48,1.249,1.249,0,0,0,.65.18,1.366,1.366,0,0,0,.93-.44,1.345,1.345,0,0,0,.36-.95,1.271,1.271,0,0,0-.33-.93,1.317,1.317,0,0,0-.9-.44Zm-.62,1.93a.8.8,0,0,0,.61-.84v-.3h-.68a.894.894,0,0,1,.29-.26.861.861,0,0,1,.38-.1.956.956,0,0,1,.66.27.894.894,0,0,1,0,1.28.938.938,0,0,1-.66.27.724.724,0,0,1-.49-.18.123.123,0,0,1-.08-.04c-.01-.04-.02-.07-.03-.1Zm-5.27,3.78.19,1.2v.16H50.75l.18-1.2h1.66a1.169,1.169,0,0,0,.75-.16Zm-1.69-4.21-.37,1.15-.12.35-.25.72H49.12V41.8a1.94,1.94,0,0,1,.39-1.11,2.017,2.017,0,0,1,.97-.7,2.609,2.609,0,0,1,1-.14h.17Z" fill="#d21209"/>
      <path id="Path_6" data-name="Path 6" d="M53.46,31.03a9.989,9.989,0,0,0-8.8,14.74L52.91,60.7a.589.589,0,0,0,.23.24.614.614,0,0,0,.64,0,.589.589,0,0,0,.23-.24l8.25-14.93a9.99,9.99,0,0,0-8.8-14.74Zm0,18.14a8.143,8.143,0,0,1-7.52-5.02,8.145,8.145,0,0,1,1.77-8.87,8.132,8.132,0,1,1,5.75,13.89Z" fill="#d21209"/>
    </g>
  </g>
</svg>
